# xmcd
#
# Track frame offsets: 
#        150
#        23885
#        49065
#        72140
#        95270
#        114443
#        137832
#        161912
#        185193
#        212216
#
# Disc length: 3187 seconds
#
# Revision: 0
# Processed by: cddbd v1.5.2PL0 Copyright (c) Steve Scherf et al.
# Submitted via: ExactAudioCopy v1.1
#
DISCID=910c710a
DTITLE=Truong Vu - On Cha Me
DYEAR=1900
DGENRE=Country
TTITLE0=Thu Cho Me
TTITLE1=Long Me 2
TTITLE2=Long Me
TTITLE3=Tinh Cha
TTITLE4=Tinh Me
TTITLE5=Mung Tuoi Me
TTITLE6=On Nghia Sinh Thanh
TTITLE7=Que Me
TTITLE8=Me Toi
TTITLE9=Loi Ve Dat Me
EXTD=
EXTT0=
EXTT1=
EXTT2=
EXTT3=
EXTT4=
EXTT5=
EXTT6=
EXTT7=
EXTT8=
EXTT9=
PLAYORDER=
